<?xml version="1.0" standalone="no"?>
<!DOCTYPE svg PUBLIC "-//W3C//DTD SVG 20010904//EN"
 "http://www.w3.org/TR/2001/REC-SVG-20010904/DTD/svg10.dtd">
<svg version="1.0" xmlns="http://www.w3.org/2000/svg"
 width="1280.000000pt" height="661.000000pt" viewBox="0 0 1280.000000 661.000000"
 preserveAspectRatio="xMidYMid meet">
<g transform="translate(0.000000,661.000000) scale(0.100000,-0.100000)"
fill="#2196f3" stroke="none">
<path d="M7330 6603 c-30 -1 -170 -7 -310 -13 -237 -10 -423 -25 -630 -51 -47
-6 -121 -15 -165 -19 -179 -19 -563 -88 -845 -152 -47 -11 -104 -23 -127 -28
-44 -10 -339 -92 -407 -115 -23 -7 -102 -32 -176 -55 -140 -44 -577 -205 -665
-245 -27 -12 -66 -28 -85 -35 -53 -19 -234 -98 -330 -143 -47 -22 -107 -50
-135 -61 -73 -31 -375 -190 -486 -257 -83 -49 -192 -123 -324 -219 -107 -78
-254 -227 -295 -300 -63 -111 -70 -131 -80 -220 -12 -104 -23 -136 -73 -209
-76 -111 -91 -154 -95 -286 -4 -139 8 -200 63 -313 19 -40 35 -77 35 -83 0
-13 -21 -9 -103 20 -100 35 -199 52 -239 41 -84 -24 -127 -92 -128 -203 l0
-68 150 -158 c83 -87 150 -162 150 -166 0 -8 -56 2 -85 15 -11 5 -54 21 -95
34 -41 14 -101 34 -134 46 -59 21 -81 21 -153 -1 -64 -20 -97 -156 -54 -224
10 -16 47 -62 82 -100 122 -134 163 -184 157 -190 -3 -3 -78 31 -168 75 -145
71 -169 80 -219 80 -66 0 -108 -22 -139 -71 -52 -85 -34 -148 87 -307 39 -52
71 -97 71 -101 0 -5 -41 12 -91 37 -152 74 -261 70 -338 -13 -40 -44 -41 -46
-41 -119 0 -52 6 -88 20 -120 l19 -46 -110 0 c-79 0 -120 -4 -143 -15 -72 -34
-136 -133 -136 -208 0 -41 -15 -57 -55 -57 -80 0 -206 -95 -253 -192 -21 -43
-55 -87 -107 -137 -103 -102 -136 -170 -143 -299 -4 -79 0 -112 23 -210 40
-171 60 -222 111 -280 60 -69 162 -129 234 -138 34 -4 92 -25 150 -53 l95 -46
125 0 c107 1 132 4 174 23 61 28 70 28 109 -2 60 -46 117 -66 192 -66 88 0
131 12 191 53 69 47 130 167 159 314 12 59 18 51 99 -132 46 -102 84 -128 187
-127 129 0 196 57 199 167 l2 50 13 -30 c43 -96 178 -139 279 -89 82 42 106
90 109 223 l1 79 28 -57 c16 -34 50 -79 83 -110 l55 -53 131 4 131 3 39 45
c21 24 43 56 49 71 l11 27 51 -34 c44 -30 57 -34 117 -34 102 0 139 14 197 76
l52 53 18 -20 c24 -26 75 -52 136 -69 41 -11 53 -10 95 6 74 27 113 61 139
121 21 47 24 68 24 184 0 135 -9 187 -53 299 -11 30 -29 69 -39 85 -22 37 -23
59 -3 75 13 10 19 10 35 -5 26 -24 85 -130 104 -186 45 -137 46 -147 56 -565
9 -378 21 -636 36 -742 5 -37 12 -48 52 -77 75 -55 237 -112 382 -135 355 -56
279 -53 1105 -46 418 4 803 8 855 11 52 3 334 7 625 10 292 3 800 10 1130 15
330 5 926 14 1325 20 885 13 976 20 1313 90 184 38 333 114 356 183 8 22 12
153 12 407 -1 734 -10 821 -127 1169 -41 124 -89 262 -105 306 -16 44 -50 143
-74 220 -79 250 -165 496 -207 596 -46 108 -69 137 -169 202 l-64 42 -127 250
c-164 321 -316 676 -373 868 -13 45 -28 96 -34 112 -5 17 -17 62 -26 100 -9
39 -20 79 -25 90 -4 11 -15 58 -25 105 -9 47 -21 103 -25 125 -5 22 -16 81
-25 130 -9 50 -20 114 -25 144 -6 30 -10 72 -10 93 l0 38 116 0 c130 0 205
-15 280 -57 125 -69 168 -127 185 -248 13 -95 7 -120 -30 -140 -36 -18 -38
-23 -51 -160 -6 -60 -16 -139 -22 -174 -7 -40 -9 -180 -6 -390 l4 -326 26 -40
c49 -77 165 -153 338 -220 110 -42 289 -103 340 -115 19 -5 80 -20 135 -35
101 -26 117 -30 260 -60 314 -65 770 -101 958 -75 156 22 234 62 274 141 91
181 264 623 321 821 16 55 16 57 -8 107 -23 50 -23 52 -7 111 20 70 23 273 6
347 -34 149 -88 269 -164 369 -206 269 -674 542 -1385 809 -150 56 -224 82
-435 153 -289 96 -347 114 -445 137 -41 9 -84 20 -95 25 -11 5 -63 19 -115 30
-52 12 -111 25 -130 30 -128 30 -501 102 -650 125 -194 29 -569 70 -795 86
-304 21 -1016 34 -1235 22z m1538 -1303 c7 -68 -15 -133 -61 -177 -46 -45 -76
-62 -153 -87 l-52 -17 -136 61 c-210 94 -450 161 -706 196 -256 34 -786 5
-918 -52 -18 -8 -42 -14 -54 -14 -74 0 -456 -152 -520 -208 -14 -12 -25 -13
-64 -3 -102 26 -201 98 -231 168 -7 19 -17 63 -20 99 l-6 64 1144 3 c629 1
1286 2 1459 2 l315 0 3 -35z m-3704 -41 c-3 -130 -82 -541 -149 -774 -7 -27
-23 -81 -34 -120 -23 -82 -106 -324 -127 -375 -9 -19 -22 -48 -29 -65 -8 -16
-37 -86 -66 -155 -28 -69 -66 -156 -84 -195 -95 -203 -165 -358 -165 -365 0
-25 -26 -59 -56 -73 -63 -31 -109 -82 -136 -154 -32 -84 -59 -169 -93 -293
-14 -52 -33 -117 -40 -145 -27 -93 -125 -488 -146 -584 -12 -53 -23 -98 -25
-100 -1 -2 -21 11 -43 28 -123 98 -287 107 -428 25 -37 -21 -47 -23 -85 -14
-124 28 -278 3 -350 -58 -31 -26 -34 -27 -177 -27 -138 0 -149 -2 -206 -28
-33 -15 -68 -35 -77 -44 -15 -13 -37 -16 -113 -14 -125 3 -202 -13 -267 -56
-35 -22 -60 -32 -73 -28 -11 3 -52 8 -91 12 -184 15 -273 -62 -304 -262 -7
-44 -16 -83 -19 -87 -4 -4 -27 31 -51 79 -37 72 -52 90 -85 107 -84 44 -225
16 -275 -54 -13 -19 -24 -58 -31 -112 -21 -171 -93 -498 -109 -498 -3 0 -15
21 -28 46 -17 33 -20 49 -12 63 22 42 60 217 60 278 0 122 -45 236 -99 254
-12 4 -10 11 8 36 37 50 39 111 5 173 -26 48 -153 180 -174 180 -16 0 -140 91
-150 110 -27 50 1 43 154 -39 305 -162 310 -164 373 -140 34 13 80 55 99 91
29 57 11 121 -66 223 -48 65 -77 120 -59 112 145 -63 161 -67 248 -67 97 0
130 14 175 73 30 39 47 121 36 171 -4 17 -21 56 -38 87 -18 31 -32 59 -32 62
0 4 43 7 95 7 112 0 160 19 206 83 60 83 64 181 11 285 l-32 62 101 0 c68 0
109 5 128 15 51 26 97 90 116 161 17 62 17 70 1 118 -17 55 -58 123 -101 171
-15 15 -24 30 -20 33 3 3 29 -3 58 -13 33 -12 91 -21 160 -25 l108 -5 37 -57
c56 -85 206 -278 247 -318 l36 -35 137 -3 c127 -3 146 -1 247 26 150 41 367
120 510 185 524 239 956 538 1041 721 16 35 24 68 23 106 0 58 -19 164 -32
176 -4 4 -7 19 -7 33 0 28 -40 195 -65 271 -42 128 -86 258 -96 285 -10 25 -7
44 15 116 45 147 103 214 248 287 74 37 218 75 253 67 6 -1 10 -17 9 -36z
m-4544 -3509 c8 -5 11 -10 5 -10 -5 0 -17 5 -25 10 -8 5 -10 10 -5 10 6 0 17
-5 25 -10z m2748 -33 c8 -10 7 -26 -3 -62 -8 -26 -15 -59 -15 -72 0 -35 -11
-28 -54 34 l-39 56 32 29 c34 30 62 36 79 15z m-453 -77 c23 -9 26 -14 20 -43
-10 -51 -26 -97 -33 -97 -10 1 -82 96 -82 109 0 12 40 41 57 41 6 0 24 -5 38
-10z m-435 -105 c0 -8 -6 -32 -14 -52 -17 -43 -36 -153 -36 -204 0 -26 -8 -10
-35 68 -34 97 -35 104 -21 132 29 54 106 96 106 56z m-2152 -215 c9 -19 10
-35 4 -47 -5 -10 -15 -44 -22 -75 -7 -32 -15 -58 -17 -58 -7 0 -62 66 -63 75
0 13 72 135 79 135 4 0 12 -13 19 -30z m2390 -52 c17 -70 26 -164 14 -153 -19
18 -42 105 -42 156 0 59 13 57 28 -3z m-2113 -138 l26 -10 -29 -25 c-48 -41
-83 -30 -61 19 13 28 24 31 64 16z"/>
</g>
</svg>
