<svg xmlns="http://www.w3.org/2000/svg" width="85" height="60" viewBox="0 0 85 60">
  <path fill="#c3c3c3" d="M5.138 54.039a3.77 3.77 0 0 1-.149-.005l-.859.002A4.134 4.134 0 0 1 0 49.906V5.195a4.135 4.135 0 0 1 4.13-4.133h46.973c2.272 0 4.123 1.95 4.123 4.229v44.612a4.133 4.133 0 0 1-4.127 4.131H29.962c-1.091-.019-3.239-.691-3.727-3.128-1.067-3.957-4.755-6.789-8.947-6.789-4.291 0-8.098 3.041-9.051 7.229-.225 1.817-1.723 2.693-3.099 2.693zM4.127 4.208c-.596 0-1.083.389-1.083.987v44.709c0 .597.488 1.086 1.086 1.086h1.004c.005-.047.123-.271.133-.317 1.267-5.562 6.323-9.597 12.022-9.597a12.356 12.356 0 0 1 11.912 9.137c.151.734.681.777.785.777h21.111c.596 0 1.083-.487 1.083-1.084V5.293c0-.598-.485-1.085-1.083-1.085H4.127zM84.929 35.828s-.093-2.093-.288-3.118c-.164-.873-1.087-2.644-1.087-2.644l-7.299-13.59c-.951-1.52-3.115-2.707-4.558-2.707H60.785a2.608 2.608 0 0 0-2.606 2.609v33.526a2.609 2.609 0 0 0 2.606 2.609h.643s.949-.123 1.304-1.312c.986-3.933 4.514-6.862 8.749-6.862 4.145 0 7.612 2.808 8.682 6.613.442 1.612 2.231 1.561 2.231 1.561A2.608 2.608 0 0 0 85 49.904l-.071-14.076zm-6.603-3.511H65.312a1.996 1.996 0 0 1-1.989-1.99V20.143c0-1.098.894-1.99 1.989-1.99h4.365c2.483 0 4.117 2.009 4.63 2.978l5.065 9.434c.521.962.053 1.752-1.046 1.752z"/>
  <path fill="white" d="M4.127 4.208c-.596 0-1.083.389-1.083.987v44.709c0 .597.488 1.086 1.086 1.086h1.004c.005-.047.123-.271.133-.317 1.267-5.562 6.323-9.597 12.022-9.597a12.356 12.356 0 0 1 11.912 9.137c.151.734.681.777.785.777h21.111c.596 0 1.083-.487 1.083-1.084V5.293c0-.598-.485-1.085-1.083-1.085H4.127z"/> <svg version="1.1" id="Capa_1" xmlns="http://www.w3.org/2000/svg" xmlns:xlink="http://www.w3.org/1999/xlink" x="0px" y="0px"
  	 width="40px" height="40px" viewBox="0 0 929.548 929.549" style="enable-background:new 0 0 929.548 929.549;"
  	 xml:space="preserve">
  	<g transform="translate(169 190)">
  		<path d="M571.529,461.031l-94.448-94.448L374.002,263.505c1.654-4.356,3.145-8.76,4.475-13.203
  			c1.389-4.64,2.605-9.322,3.642-14.036c13.772-62.643-3.595-130.885-52.108-179.399C271.227-1.916,184.132-15.125,112.621,17.232
  			c-11.882,5.376-14.718,20.981-5.497,30.203l120.251,120.251c14.625,14.625,14.625,38.338,0,52.963L107,341.024
  			c-9.161,9.161-6.339,24.654,5.461,30.006c38.818,17.607,82.239,21.772,123.238,12.507c4.692-1.06,9.351-2.297,13.969-3.709
  			c4.421-1.352,8.802-2.866,13.137-4.541l97.308,97.309l105.404,105.403L804.75,917.233c4.877,4.877,11.271,7.316,17.662,7.316
  			c6.393,0,12.785-2.438,17.662-7.316l76.166-76.166c9.755-9.755,9.755-25.57,0-35.324L571.529,461.031z M817.547,852.08
  			c-17.674,0-32-14.327-32-32s14.326-32,32-32c17.673,0,32,14.327,32,32S835.22,852.08,817.547,852.08z"/>
  		<path d="M80.608,309.248l79.586-79.586c8.255-8.256,8.255-21.641,0-29.896L48.199,87.771c-5.945-5.945-15.953-4.381-19.817,3.085
  			C-7.281,159.771-0.342,245.019,49.206,307.573C57.007,317.422,71.723,318.131,80.608,309.248z"/>
  	</g>
  </svg>
</svg>
